<?xml version="1.0" encoding="utf-8"?>
<!-- Svg Vector Icons : http://www.onlinewebfonts.com/icon -->
<!DOCTYPE svg PUBLIC "-//W3C//DTD SVG 1.1//EN" "http://www.w3.org/Graphics/SVG/1.1/DTD/svg11.dtd">
<svg version="1.1" xmlns="http://www.w3.org/2000/svg" xmlns:xlink="http://www.w3.org/1999/xlink" x="0px" y="0px" viewBox="0 0 1000 1000" enable-background="new 0 0 1000 1000" xml:space="preserve">
<metadata> Svg Vector Icons : http://www.onlinewebfonts.com/icon </metadata>
<g><path d="M485.4,561.7"/><path d="M788,10H212c-55.5,0-100.6,46.7-100.6,104.4v771.3c0,57.6,45,104.4,100.6,104.4h576c55.5,0,100.6-46.7,100.6-104.4V114.4C888.6,56.7,843.6,10,788,10z M234.1,172.7h382.8v65.9H234.1V172.7z M234.1,308.9h382.8v65.9H234.1V308.9z M405.3,783.3H224.8v-65.9h180.6V783.3z M405.3,647.1H224.8v-65.9h180.6V647.1z M405.3,511H224.8v-65.9h180.6V511z M820.1,649.9c-7.7,9.7-16.6,21.5-26.7,35.2c-10.1,13.8-20.6,28.1-31.3,42.8c-10.7,14.8-21.3,29.2-31.6,43.2c-10.3,14-19.6,26-27.6,36.2c-7.3,9.3-14.3,14.1-21,14.3c-6.7,0.2-13.7-4.2-21-13.1l-0.1,0.1c-7.7-8.9-16.5-20.1-26.4-33.4c-9.9-13.4-20.1-27.1-30.7-41.3c-10.5-14.2-21-28.2-31.3-41.9c-10.3-13.8-19.5-25.7-27.7-35.9c-9.3-10.9-13-20-11-27c2-7.1,8.9-10.6,20.7-10.6c6.5,0.4,15.2,0.3,26.1-0.3c10.9-0.6,20.1-0.9,27.3-0.9c8.1,0,13.2-2.4,15.2-7.3c2-4.9,3-11.4,3-19.4c0-8.9-0.1-18.8-0.3-29.5c-0.2-10.7-0.3-21.8-0.3-33.1c0-11.3-0.1-22.5-0.3-33.4c-0.2-11-0.3-21.1-0.3-30.4c0-4.1,0.3-8.3,0.9-12.7c0.6-4.4,2-8.5,4.3-12.2c2.2-3.7,5.5-6.7,9.7-9.1c4.2-2.4,10-3.6,17.3-3.7c8.5,0,16.3-0.1,23.4-0.3c7.1-0.2,15.3-0.3,24.6-0.3c13.4,0,22.4,3.1,27,9.4c4.7,6.3,7.2,16.3,7.6,30.1v23.7c0,9.3,0.1,19.3,0.3,29.8c0.2,10.5,0.3,21.1,0.3,31.6v28.6c0,11.8,1.2,21.2,3.7,28.3c2.4,7.1,7.9,10.4,16.4,10c6.1,0,13.5,0.2,22.2,0.6c8.7,0.4,16.3,0.6,22.8,0.6c10.9,0,17.9,2.9,21,8.8C829.5,632.9,827.3,640.5,820.1,649.9z"/></g>
</svg>