<?xml version="1.0" standalone="no"?>
<!DOCTYPE svg PUBLIC "-//W3C//DTD SVG 20010904//EN"
 "http://www.w3.org/TR/2001/REC-SVG-20010904/DTD/svg10.dtd">
<svg version="1.0" xmlns="http://www.w3.org/2000/svg"
 width="857.000000pt" height="1280.000000pt" viewBox="0 0 857.000000 1280.000000"
 preserveAspectRatio="xMidYMid meet">
<metadata>
Created by potrace 1.15, written by Peter Selinger 2001-2017
</metadata>
<g transform="translate(0.000000,1280.000000) scale(0.100000,-0.100000)"
fill="#000000" stroke="none">
<path d="M2485 12782 c-16 -11 -37 -27 -45 -37 -8 -10 -76 -72 -150 -138 -74
-66 -141 -127 -147 -135 -22 -27 -16 -80 12 -107 36 -37 81 -33 137 10 l46 34
20 -52 c11 -29 36 -91 57 -138 l37 -85 -41 -65 c-22 -35 -44 -84 -50 -109 -18
-84 12 -178 63 -201 56 -26 150 35 218 140 47 75 39 128 -63 374 -44 106 -98
242 -101 257 -1 3 31 37 70 76 62 61 72 75 72 106 0 25 -8 43 -26 62 -31 31
-67 33 -109 8z"/>
<path d="M115 12536 c-116 -29 -145 -69 -84 -120 17 -14 34 -26 38 -26 4 0 14
-12 22 -27 20 -38 63 -51 195 -63 152 -13 184 -30 184 -97 l0 -46 -72 8 c-40
4 -84 7 -97 6 -34 -2 -71 -28 -71 -49 0 -21 27 -62 41 -62 5 0 32 -18 60 -40
36 -28 60 -40 83 -40 20 0 40 -8 51 -20 17 -19 31 -20 216 -20 l197 0 54 -65
c79 -95 142 -208 215 -383 36 -86 85 -204 109 -262 50 -117 244 -490 351 -675
56 -95 72 -131 76 -175 4 -31 18 -88 32 -128 14 -39 25 -83 25 -97 0 -18 10
-31 38 -48 145 -92 162 -105 198 -157 20 -30 57 -81 81 -114 57 -74 154 -268
186 -371 72 -225 109 -355 146 -502 40 -158 41 -167 41 -333 0 -103 -6 -210
-16 -273 -8 -56 -24 -168 -34 -249 -17 -128 -25 -161 -66 -260 -57 -140 -70
-165 -103 -204 -14 -17 -39 -49 -56 -70 -62 -79 -81 -94 -122 -94 -44 0 -63
-14 -63 -45 0 -27 18 -45 47 -45 15 0 28 -10 38 -30 9 -18 26 -32 43 -36 15
-4 34 -12 42 -19 8 -7 25 -16 37 -19 28 -9 30 -37 4 -60 -10 -9 -53 -85 -94
-169 -71 -142 -134 -312 -197 -533 -12 -43 -33 -110 -46 -149 -42 -122 -52
-177 -65 -331 -14 -183 -7 -303 31 -553 20 -131 28 -211 24 -246 -6 -51 -6
-52 34 -86 39 -33 40 -37 72 -179 97 -440 132 -547 323 -980 284 -647 308
-715 587 -1710 345 -1225 571 -1892 713 -2100 44 -64 105 -128 152 -159 39
-27 43 -27 130 -20 106 9 138 19 160 53 38 58 24 192 -36 342 -16 40 -33 103
-38 140 -6 38 -18 123 -27 189 -9 66 -20 136 -25 155 -22 87 -4 142 70 214 55
55 83 116 83 189 1 52 -39 143 -78 178 -47 42 -176 126 -283 184 l-75 41 -12
64 c-6 36 -15 124 -18 195 -4 72 -11 146 -16 165 -13 52 -49 435 -76 810 -14
202 -17 220 -51 309 l-35 94 63 56 c35 31 97 87 139 125 41 38 91 76 112 86
21 9 57 39 80 66 23 27 65 74 93 105 27 30 72 89 99 130 67 99 188 248 273
334 87 89 489 457 511 469 16 9 162 118 246 183 22 18 57 44 76 57 19 13 56
45 81 72 25 27 79 76 119 109 237 193 508 482 575 615 68 135 26 270 -114 359
-83 54 -509 218 -711 275 -159 44 -447 98 -760 141 -98 14 -107 17 -131 46
-25 30 -28 31 -80 25 -30 -3 -88 -1 -129 4 -166 23 -196 28 -216 36 -22 10
-164 167 -164 182 0 5 6 14 13 20 21 18 57 -20 128 -135 15 -23 34 -36 75 -49
30 -9 57 -14 61 -10 4 3 -1 28 -10 54 -20 55 -22 88 -5 98 6 4 55 11 107 15
86 7 194 38 218 63 3 3 13 6 21 6 13 0 13 -3 -1 -18 -47 -52 1 -55 74 -6 76
51 114 89 158 159 37 58 39 65 51 190 6 72 12 138 13 148 3 26 20 24 35 -4 15
-29 9 -138 -15 -248 -23 -112 -36 -137 -151 -296 -40 -55 -37 -77 10 -68 133
25 266 143 317 280 21 57 23 75 19 195 -4 130 -5 134 -39 193 -31 54 -100 216
-94 223 1 1 40 -5 86 -14 282 -54 593 -105 689 -114 3 0 29 -18 59 -40 62 -47
79 -49 129 -15 41 28 89 32 118 10 27 -20 38 -19 73 11 30 25 31 25 128 14 54
-6 178 -26 275 -45 284 -55 537 -80 948 -94 129 -5 242 -11 250 -15 11 -5 15
-24 16 -66 1 -47 9 -75 39 -132 40 -80 61 -108 81 -108 23 0 124 70 124 85 0
19 36 38 59 30 10 -3 31 -23 46 -44 69 -100 200 -199 345 -261 85 -37 104 -29
98 41 -6 58 -2 59 72 23 62 -30 73 -43 90 -99 17 -57 45 -92 85 -105 30 -10
38 -9 60 8 24 19 28 20 71 5 40 -14 47 -14 69 1 46 30 28 81 -75 216 -82 107
-155 171 -325 284 -147 97 -426 250 -515 281 -25 9 -62 30 -84 47 -35 28 -47
32 -140 38 -55 4 -144 17 -196 28 -200 43 -411 95 -575 142 -93 26 -271 71
-395 99 -124 28 -245 58 -270 66 -25 7 -69 19 -99 25 -65 13 -81 24 -81 57 0
39 -18 63 -48 63 -15 0 -36 7 -46 15 -14 10 -45 15 -102 15 -75 0 -84 2 -118
29 -21 17 -53 35 -72 41 -30 10 -39 9 -70 -11 -50 -30 -160 -37 -237 -15 -31
9 -59 20 -62 25 -3 6 81 54 186 108 172 87 200 105 263 168 53 52 76 83 89
120 21 61 23 184 3 228 -8 18 -31 70 -52 117 -20 46 -48 103 -60 125 -13 22
-30 55 -39 73 -16 34 -68 98 -209 258 -85 96 -218 259 -255 311 -19 29 -21 40
-15 95 9 85 38 132 155 255 81 84 100 110 113 154 40 132 -3 300 -108 428 -23
28 -83 83 -134 122 -61 47 -92 77 -92 90 0 33 -29 79 -56 89 -14 6 -40 10 -57
10 -42 0 -52 8 -66 52 -15 45 -46 69 -121 93 -30 9 -101 44 -158 77 -267 157
-336 151 -757 -56 -115 -57 -232 -113 -258 -126 -31 -14 -58 -37 -75 -62 -14
-22 -54 -60 -89 -85 -71 -51 -77 -63 -113 -252 -11 -58 -23 -107 -28 -110 -4
-3 -24 -18 -43 -33 -19 -15 -58 -32 -87 -38 -97 -21 -180 -110 -166 -179 5
-25 -8 -56 -76 -185 l-83 -155 -69 82 c-196 231 -222 274 -238 387 -14 99 -58
193 -99 209 -17 8 -44 32 -59 55 -25 37 -32 41 -79 46 -29 3 -54 8 -56 10 -3
3 -30 71 -61 153 -179 464 -319 697 -625 1032 -25 28 -80 91 -121 140 -207
246 -380 384 -665 527 -49 25 -103 53 -120 62 -37 20 -263 21 -340 2z m4561
-7058 c-201 -202 -214 -219 -456 -608 -84 -135 -168 -267 -188 -293 l-35 -49
-51 5 c-28 2 -79 10 -113 16 -109 22 -245 -11 -316 -78 -51 -47 -57 -69 -57
-215 0 -79 -4 -137 -10 -141 -5 -3 -10 -28 -10 -55 0 -82 -20 -151 -60 -205
-20 -27 -56 -87 -79 -132 -24 -46 -48 -83 -55 -83 -6 0 -21 22 -33 48 -13 26
-45 82 -72 125 -76 122 -79 137 -85 501 -5 232 -13 390 -32 580 -15 144 -27
297 -29 341 -1 44 -8 124 -15 178 -7 54 -11 99 -9 101 2 2 45 19 95 40 143 58
371 76 449 36 44 -23 92 -20 135 7 48 32 322 48 760 44 168 -1 325 2 350 8
109 22 110 24 -84 -171z"/>
<path d="M770 10432 c-57 -29 -338 -253 -486 -387 -83 -75 -150 -127 -167
-131 -39 -8 -70 -58 -62 -102 9 -49 24 -78 49 -91 22 -12 53 -54 97 -135 l27
-48 -32 -51 c-28 -45 -31 -58 -31 -131 0 -69 4 -90 28 -139 29 -59 64 -87 108
-87 49 0 163 45 195 77 46 46 61 121 40 203 -21 80 -39 106 -90 125 -36 14
-45 23 -54 54 -7 20 -34 74 -62 120 -27 45 -50 86 -50 91 0 18 305 283 425
369 l43 31 21 -53 c22 -57 61 -205 61 -233 0 -10 -20 -39 -44 -64 -68 -70
-106 -150 -106 -224 0 -113 57 -173 154 -161 54 7 112 33 137 61 59 68 79 165
56 275 -9 41 -21 108 -28 149 -16 101 -50 223 -83 297 -23 50 -26 65 -16 83
16 30 3 76 -27 100 -32 25 -59 25 -103 2z"/>
</g>
</svg>
