<?xml version="1.0" standalone="no"?>
<!DOCTYPE svg PUBLIC "-//W3C//DTD SVG 20010904//EN"
 "http://www.w3.org/TR/2001/REC-SVG-20010904/DTD/svg10.dtd">
<svg version="1.0" xmlns="http://www.w3.org/2000/svg"
 width="1174.000000pt" height="1280.000000pt" viewBox="0 0 1174.000000 1280.000000"
 preserveAspectRatio="xMidYMid meet">
<metadata>
Created by potrace 1.15, written by Peter Selinger 2001-2017
</metadata>
<g transform="translate(0.000000,1280.000000) scale(0.100000,-0.100000)"
fill="#000000" stroke="none">
<path d="M10280 12777 c-25 -14 -169 -98 -320 -187 -151 -89 -592 -347 -980
-573 -388 -225 -1045 -609 -1460 -852 -415 -243 -1077 -630 -1470 -860 -393
-230 -843 -493 -1000 -585 -157 -92 -514 -301 -795 -465 -280 -164 -672 -394
-870 -510 -198 -117 -408 -240 -468 -273 -170 -97 -663 -393 -693 -417 -43
-34 -24 -45 79 -45 l91 0 -31 -32 c-47 -51 -63 -80 -63 -115 0 -31 2 -33 33
-33 17 0 57 7 87 15 30 8 65 15 78 15 29 0 29 -25 0 -44 -20 -13 -405 -113
-1520 -394 l-307 -77 -7 -53 c-12 -98 2 -379 26 -512 40 -225 16 -546 -56
-723 -53 -135 -170 -251 -299 -298 -105 -38 -206 -90 -248 -127 -66 -60 -80
-105 -85 -262 -7 -227 22 -420 62 -420 23 0 33 -27 39 -106 3 -39 13 -88 21
-108 26 -64 32 -65 706 -196 533 -104 852 -168 857 -173 9 -10 56 -422 118
-1033 67 -658 77 -833 61 -1015 -8 -85 16 -375 32 -390 10 -9 226 -56 293 -64
51 -6 62 -4 125 28 105 54 167 106 176 147 5 19 5 222 2 450 -5 398 -4 439 30
995 41 670 44 705 60 705 42 0 959 -165 1476 -265 267 -52 582 -112 700 -135
334 -64 424 -82 432 -89 4 -4 14 -216 23 -471 8 -256 22 -676 30 -935 8 -259
18 -543 22 -632 7 -177 4 -186 -46 -196 -36 -8 -185 -120 -225 -170 l-31 -39
2 -168 2 -167 -53 -6 c-85 -9 -166 -57 -152 -92 20 -54 216 -60 359 -10 54 18
87 24 110 20 70 -15 167 -46 167 -55 0 -5 -22 -21 -49 -35 -60 -30 -72 -57
-40 -91 27 -29 76 -44 142 -44 60 0 80 11 138 72 26 28 54 48 66 48 27 0 156
-27 201 -41 31 -10 33 -14 27 -43 -18 -90 -18 -97 5 -121 13 -14 39 -30 58
-36 41 -13 157 -6 178 12 18 15 17 47 -1 79 -8 14 -14 28 -15 33 0 12 42 8
150 -13 56 -11 114 -17 128 -14 63 16 175 121 206 195 19 47 39 216 34 289 -6
80 -27 101 -128 130 -83 24 -140 52 -140 71 0 11 49 140 277 729 80 206 214
553 298 770 84 217 167 430 185 474 l33 79 78 -6 c74 -6 496 -80 1184 -207
176 -33 408 -75 515 -94 598 -107 714 -128 725 -133 20 -7 24 -153 36 -1088
12 -960 9 -1103 -25 -1180 -24 -56 -27 -153 -12 -386 l8 -126 218 -52 c174
-42 223 -50 239 -41 28 14 116 122 141 170 41 81 88 383 75 487 -21 171 -17
211 151 1433 137 999 152 1095 191 1180 13 30 43 105 65 165 49 135 125 281
216 417 38 57 84 129 102 161 20 35 91 119 180 211 81 83 153 163 160 176 7
13 16 57 20 97 6 63 13 82 49 135 23 34 51 94 63 133 12 38 29 88 39 110 29
69 35 132 94 960 79 1108 81 1143 64 1173 -28 51 -229 130 -579 227 -91 26
-172 48 -182 51 -12 3 -21 29 -33 97 -96 526 -153 810 -194 962 -72 264 -96
374 -476 2225 -113 551 -205 1058 -205 1130 0 39 5 44 175 172 147 110 387
269 575 379 91 54 225 132 297 175 246 144 310 227 195 253 -44 10 -226 35
-587 81 -88 11 -212 23 -275 26 -109 6 -117 5 -160 -19z m-341 -1174 c5 -10
25 -112 45 -228 134 -767 153 -876 321 -1790 116 -635 160 -903 190 -1180 24
-216 43 -343 86 -560 43 -222 66 -352 71 -405 3 -33 1 -35 -26 -32 -42 5 -173
47 -319 104 l-127 50 5 121 c2 67 7 244 10 394 l6 271 -53 30 c-234 134 -778
215 -2053 307 -671 48 -821 55 -1138 55 -458 0 -607 -13 -964 -81 -133 -26
-176 -30 -185 -21 -17 17 42 41 294 116 118 35 232 72 254 81 21 9 86 34 144
55 282 102 425 165 873 382 403 195 623 298 637 298 5 0 30 15 54 34 44 33
197 118 481 266 368 192 903 502 1082 627 107 74 208 164 229 204 17 34 18 60
2 94 -14 31 -44 48 -189 104 -130 51 -196 91 -205 126 -19 76 18 157 131 285
82 93 309 310 325 310 5 0 13 -8 19 -17z m-4275 -2978 c8 -23 -4 -45 -28 -50
-11 -3 -259 -63 -550 -135 -528 -129 -638 -151 -650 -132 -16 27 39 46 384
133 355 90 739 187 765 192 43 10 73 7 79 -8z m-1404 -350 c0 -30 -68 -55
-334 -120 -735 -180 -888 -217 -1003 -240 -142 -29 -193 -32 -193 -11 0 16 -2
15 835 225 347 87 645 159 663 160 22 1 32 -3 32 -14z m1422 -4800 c-7 -432
-75 -1861 -88 -1874 -15 -16 5 1984 21 2009 4 6 21 10 38 8 l32 -3 -3 -140z
m270 79 c8 -5 9 -159 5 -563 -9 -722 -27 -1514 -36 -1571 l-7 -45 -49 3 c-68
3 -188 30 -210 46 -19 14 -19 47 15 786 6 113 19 428 30 700 18 463 23 541 36
646 l5 41 100 -18 c55 -10 105 -22 111 -25z m70 -2070 c-5 -68 -11 -127 -15
-130 -3 -4 -13 -4 -22 -1 -13 6 -15 42 -15 274 0 147 4 432 10 633 5 201 14
534 20 740 6 206 13 411 18 455 10 111 14 -1819 4 -1971z m581 1957 c84 -16
219 -42 302 -56 160 -29 185 -37 185 -61 0 -8 -54 -151 -119 -317 -66 -166
-167 -426 -224 -577 -58 -151 -136 -354 -175 -450 -38 -96 -104 -265 -147
-375 -42 -110 -79 -202 -82 -205 -10 -9 6 429 32 885 13 242 31 562 39 710 24
423 28 475 33 475 3 0 73 -13 156 -29z"/>
</g>
</svg>
